<?xml version="1.0" standalone="no"?>
<!DOCTYPE svg PUBLIC "-//W3C//DTD SVG 20010904//EN"
 "http://www.w3.org/TR/2001/REC-SVG-20010904/DTD/svg10.dtd">
<svg version="1.0" xmlns="http://www.w3.org/2000/svg"
 width="900.000000pt" height="900.000000pt" viewBox="0 0 900.000000 900.000000"
 preserveAspectRatio="xMidYMid meet">
<metadata>
Created by potrace 1.15, written by Peter Selinger 2001-2017
</metadata>
<g transform="translate(0.000000,900.000000) scale(0.100000,-0.100000)"
fill="#000000" stroke="none">
<path d="M4150 8094 c-19 -2 -91 -8 -160 -14 -465 -39 -995 -207 -1385 -439
l-51 -30 -49 36 c-268 194 -667 193 -938 -1 -186 -132 -304 -321 -343 -550
-33 -190 16 -407 132 -583 l38 -56 -23 -41 c-271 -477 -409 -918 -456 -1456
-19 -220 -19 -267 0 -321 33 -93 140 -156 223 -131 59 18 103 52 129 101 19
37 23 59 23 136 0 119 25 359 51 500 56 293 132 522 266 790 99 200 92 192
145 172 152 -57 339 -68 481 -28 192 53 337 148 447 293 73 97 123 199 151
308 19 73 21 103 16 225 -4 117 -9 152 -31 215 -21 59 -24 77 -14 86 20 19
214 118 323 164 340 145 789 240 1130 240 107 0 164 23 203 80 38 56 47 107
28 165 -37 118 -133 158 -336 139z m-2031 -694 c222 -42 380 -270 343 -495
-15 -95 -53 -167 -119 -234 -236 -235 -623 -137 -722 183 -96 310 175 607 498
546z"/>
<path d="M5785 6826 c-16 -7 -137 -120 -267 -250 -130 -130 -240 -236 -245
-236 -4 0 -107 99 -228 220 -190 190 -226 222 -269 236 -62 21 -134 13 -190
-20 -22 -13 -167 -151 -321 -305 -153 -155 -281 -281 -284 -281 -3 0 -113 108
-246 239 -132 132 -253 245 -268 250 -44 17 -118 13 -157 -8 -19 -10 -48 -37
-64 -59 -24 -34 -29 -51 -29 -99 0 -39 6 -68 18 -88 10 -17 123 -136 252 -265
l233 -235 -295 -295 -295 -295 -242 242 c-213 212 -248 243 -288 253 -118 31
-239 -51 -240 -164 0 -80 16 -102 250 -337 124 -124 231 -234 239 -243 13 -15
-14 -45 -276 -309 -160 -161 -299 -308 -308 -327 -12 -23 -18 -57 -18 -103 0
-62 3 -72 36 -120 21 -29 126 -141 235 -250 l199 -197 -235 -238 c-129 -130
-240 -248 -247 -262 -34 -65 -27 -150 17 -205 45 -58 142 -80 216 -49 24 10
120 98 272 250 130 128 238 234 241 234 3 0 105 -100 227 -222 l222 -223 -235
-235 c-151 -152 -239 -248 -249 -272 -23 -54 -20 -125 7 -173 26 -48 95 -86
155 -87 75 -1 116 30 356 272 126 126 231 229 232 227 2 -1 101 -99 221 -218
127 -126 236 -225 260 -238 51 -26 134 -28 189 -5 27 11 130 106 335 311 l296
295 224 -227 c123 -124 242 -237 265 -251 67 -40 168 -31 222 19 56 52 72 148
37 217 -9 19 -122 141 -251 270 l-234 235 295 295 295 295 237 -237 c131 -130
252 -243 270 -252 105 -52 243 21 259 137 12 88 -3 110 -261 367 -129 129
-235 239 -235 245 0 5 132 142 294 305 284 285 295 297 311 352 14 49 15 67 5
115 -12 58 -13 59 -241 288 -126 127 -229 235 -229 241 0 5 99 108 221 229
121 121 232 238 247 260 32 50 36 135 8 186 -25 47 -85 88 -140 95 -83 12
-124 -18 -381 -276 l-230 -230 -225 225 -225 225 237 237 c155 156 243 251
253 275 37 90 4 194 -75 235 -49 26 -118 30 -165 9z m-842 -996 c152 -107 326
-237 365 -274 49 -47 66 -96 56 -162 -13 -89 -100 -164 -192 -164 -23 0 -42
-4 -42 -9 0 -6 25 -108 56 -228 92 -355 93 -368 45 -446 -36 -58 -62 -70 -366
-161 -49 -15 -101 -31 -115 -36 -14 -5 -65 -21 -115 -36 -49 -14 -133 -40
-185 -56 -52 -16 -117 -36 -145 -44 -159 -47 -186 -58 -179 -73 3 -9 21 -74
39 -146 19 -71 50 -193 70 -270 85 -328 88 -350 56 -413 -51 -99 -166 -140
-261 -92 -68 34 -76 54 -139 300 -22 85 -54 209 -71 275 -105 402 -121 471
-115 505 9 51 50 115 87 138 18 11 213 75 433 141 220 67 418 128 440 135 22
8 72 24 111 35 l72 21 -44 167 c-24 93 -44 171 -44 176 0 4 -19 -5 -42 -20
-35 -23 -54 -28 -105 -28 -54 0 -66 4 -100 31 -95 77 -100 146 -23 319 5 11
27 65 50 120 23 55 45 109 50 120 5 11 18 42 30 69 46 110 114 160 208 153 43
-3 65 -12 115 -47z"/>
<path d="M7830 4477 c-40 -16 -62 -33 -84 -65 -30 -42 -31 -47 -37 -195 -23
-482 -117 -856 -320 -1262 -94 -188 -88 -182 -141 -162 -146 54 -328 67 -468
33 -284 -70 -518 -290 -600 -565 -45 -152 -43 -340 5 -482 20 -59 23 -76 13
-85 -18 -18 -206 -113 -318 -162 -332 -144 -791 -242 -1132 -242 -141 0 -198
-35 -233 -141 -15 -44 -15 -57 -4 -97 18 -64 68 -117 131 -138 56 -18 158 -16
421 11 335 35 655 118 967 252 127 55 265 123 341 169 65 39 89 42 114 14 29
-32 194 -107 284 -130 171 -43 374 -24 539 50 141 65 288 197 366 331 131 226
146 515 41 746 -18 39 -50 98 -71 129 l-38 57 23 41 c253 447 398 885 446
1356 27 258 29 362 11 417 -20 60 -66 107 -125 128 -56 19 -65 19 -131 -8z
m-771 -2028 c235 -54 386 -297 327 -527 -83 -324 -483 -440 -720 -208 -168
163 -178 431 -24 601 106 116 269 168 417 134z"/>
</g>
</svg>
